<?xml version="1.0" standalone="no"?><!DOCTYPE svg PUBLIC "-//W3C//DTD SVG 1.1//EN" "http://www.w3.org/Graphics/SVG/1.1/DTD/svg11.dtd"><svg t="1741855661701" class="icon" viewBox="0 0 1024 1024" version="1.1" xmlns="http://www.w3.org/2000/svg" p-id="2562" xmlns:xlink="http://www.w3.org/1999/xlink" width="200" height="200"><path d="M110.933333 110.933333h887.466667v887.466667h-887.466667z" fill="#22BB7A" opacity=".2" p-id="2563"></path><path d="M910.628571 910.628571H23.161905V23.161905h887.466666v887.466666z m-789.942857-97.523809h692.419048v-692.419048h-692.419048v692.419048z" fill="#2FBF80" p-id="2564"></path><path d="M491.27619 783.847619c-107.27619 0-195.047619-87.771429-195.047619-195.047619s87.771429-195.047619 195.047619-195.047619 195.047619 87.771429 195.04762 195.047619-87.771429 195.047619-195.04762 195.047619z m0-292.571429c-53.638095 0-97.52381 43.885714-97.523809 97.52381s43.885714 97.52381 97.523809 97.52381 97.52381-43.885714 97.52381-97.52381-43.885714-97.52381-97.52381-97.52381z" fill="#FFFFFF" p-id="2565"></path><path d="M291.352381 135.314286h97.523809v487.619047h-97.523809z" fill="#FFFFFF" p-id="2566"></path></svg>